<svg xmlns="http://www.w3.org/2000/svg" xmlns:xlink="http://www.w3.org/1999/xlink" width="2500" zoomAndPan="magnify" viewBox="0 0 1874.88 449.999984" height="600" preserveAspectRatio="xMidYMid meet" version="1.0"><defs><g/><clipPath id="f22274f3e8"><path d="M 185 68.078125 L 356 68.078125 L 356 264 L 185 264 Z M 185 68.078125 " clip-rule="nonzero"/></clipPath></defs><g clip-path="url(#f22274f3e8)"><path fill="#00ffe6" d="M 270.089844 68.078125 L 355.167969 116.039062 L 355.167969 214.925781 L 270.089844 263.695312 L 270.089844 167.773438 L 185.546875 117.386719 Z M 270.089844 68.078125 " fill-opacity="1" fill-rule="nonzero"/></g><path fill="#00ffe6" d="M 88.082031 272.316406 L 88.082031 174.625 L 173.160156 124.523438 L 256.597656 173.222656 L 173.160156 221.785156 L 173.160156 320.277344 Z M 88.082031 272.316406 " fill-opacity="1" fill-rule="nonzero"/><path fill="#00ffe6" d="M 355.167969 325.667969 L 270.089844 375.785156 L 185.546875 327.015625 L 185.546875 228.9375 L 270.089844 276.089844 L 355.167969 227.859375 Z M 355.167969 325.667969 " fill-opacity="1" fill-rule="nonzero"/><g fill="#ebebeb" fill-opacity="1"><g transform="translate(429.894667, 210.519461)"><g><path d="M 61.859375 -26.09375 C 61.859375 -7.78125 52.359375 1.375 33.359375 1.375 C 15.265625 1.375 6.21875 -6.972656 6.21875 -23.671875 L 6.21875 -34.046875 L 24.359375 -34.046875 L 24.359375 -13.65625 C 30.816406 -13.65625 33.988281 -13.65625 33.875 -13.65625 C 40.664062 -13.65625 44.0625 -17.742188 44.0625 -25.921875 L 44.0625 -34.390625 C 44.0625 -39.109375 43.71875 -42.332031 43.03125 -44.0625 C 41.644531 -47.0625 38.242188 -50.632812 32.828125 -54.78125 C 24.878906 -60.3125 18.023438 -65.84375 12.265625 -71.375 C 8.234375 -75.175781 6.21875 -79.4375 6.21875 -84.15625 L 6.21875 -102.65625 C 6.101562 -117.863281 15.722656 -125.46875 35.078125 -125.46875 C 52.929688 -125.46875 61.859375 -117.628906 61.859375 -101.953125 L 61.859375 -91.421875 L 44.0625 -91.421875 L 44.0625 -103.34375 C 44.0625 -106.570312 43.398438 -108.816406 42.078125 -110.078125 C 40.753906 -111.347656 38.363281 -112.039062 34.90625 -112.15625 C 29.03125 -112.039062 26.09375 -109.101562 26.09375 -103.34375 L 26.09375 -91.765625 C 26.09375 -87.148438 26.320312 -84.097656 26.78125 -82.609375 C 27.59375 -80.421875 29.609375 -78.113281 32.828125 -75.6875 C 37.671875 -72 44.066406 -67.160156 52.015625 -61.171875 C 58.816406 -56.109375 62.097656 -48.738281 61.859375 -39.0625 C 61.859375 -39.0625 61.859375 -34.738281 61.859375 -26.09375 Z M 61.859375 -26.09375 "/></g></g></g><g fill="#ebebeb" fill-opacity="1"><g transform="translate(499.017187, 210.519461)"><g><path d="M 60.65625 -110.765625 L 40.09375 -110.765625 L 40.09375 0.34375 L 21.953125 0.34375 L 21.953125 -110.765625 L 1.5625 -110.765625 L 1.5625 -124.421875 L 60.65625 -124.421875 Z M 60.65625 -110.765625 "/></g></g></g><g fill="#ebebeb" fill-opacity="1"><g transform="translate(561.227436, 210.519461)"><g><path d="M 67.046875 -89.515625 C 67.046875 -71.078125 61.113281 -60.59375 49.25 -58.0625 C 59.269531 -49.3125 64.28125 -29.84375 64.28125 0.34375 L 46.65625 0.34375 C 47.113281 -31.101562 41.757812 -49.820312 30.59375 -55.8125 L 26.265625 -55.8125 L 26.265625 0.34375 L 8.125 0.34375 L 8.125 -124.421875 L 29.890625 -124.421875 C 43.253906 -124.421875 52.472656 -122.40625 57.546875 -118.375 C 63.878906 -113.425781 67.046875 -103.804688 67.046875 -89.515625 Z M 49.078125 -89.515625 C 49.078125 -100.234375 47.984375 -106.6875 45.796875 -108.875 C 43.609375 -111.0625 37.097656 -112.15625 26.265625 -112.15625 L 26.265625 -69.46875 C 35.941406 -69.46875 41.988281 -70.332031 44.40625 -72.0625 C 47.519531 -74.363281 49.078125 -80.179688 49.078125 -89.515625 Z M 49.078125 -89.515625 "/></g></g></g><g fill="#ebebeb" fill-opacity="1"><g transform="translate(632.596421, 210.519461)"><g><path d="M 66.875 0.34375 L 49.421875 0.34375 L 49.421875 -40.265625 L 27.296875 -40.265625 L 27.296875 0.34375 L 9.84375 0.34375 L 9.84375 -93.140625 C 9.84375 -113.878906 19.347656 -124.304688 38.359375 -124.421875 C 46.078125 -124.535156 52.472656 -122.460938 57.546875 -118.203125 C 63.765625 -112.785156 66.875 -104.664062 66.875 -93.84375 Z M 49.421875 -101.609375 C 49.421875 -107.953125 45.734375 -111.125 38.359375 -111.125 C 30.984375 -111.125 27.296875 -107.953125 27.296875 -101.609375 L 27.296875 -52.703125 L 49.421875 -52.703125 Z M 49.421875 -101.609375 "/></g></g></g><g fill="#ebebeb" fill-opacity="1"><g transform="translate(710.359253, 210.519461)"><g><path d="M 60.65625 -110.765625 L 40.09375 -110.765625 L 40.09375 0.34375 L 21.953125 0.34375 L 21.953125 -110.765625 L 1.5625 -110.765625 L 1.5625 -124.421875 L 60.65625 -124.421875 Z M 60.65625 -110.765625 "/></g></g></g><g fill="#ebebeb" fill-opacity="1"><g transform="translate(772.569503, 210.519461)"><g><path d="M 58.75 0.34375 L 28 0.34375 C 14.40625 0.34375 7.609375 -4.609375 7.609375 -14.515625 L 7.609375 -109.5625 C 7.609375 -114.863281 9.191406 -118.664062 12.359375 -120.96875 C 15.523438 -123.269531 20.738281 -124.421875 28 -124.421875 L 58.75 -124.421875 L 58.75 -110.765625 L 25.75 -110.765625 L 25.75 -69.640625 L 54.4375 -69.640625 L 54.4375 -55.984375 L 25.75 -55.984375 L 25.75 -13.3125 L 58.75 -13.3125 Z M 58.75 0.34375 "/></g></g></g><g fill="#ebebeb" fill-opacity="1"><g transform="translate(833.742932, 210.519461)"><g><path d="M 58.234375 0.34375 L 7.609375 0.34375 L 7.609375 -124.421875 L 25.75 -124.421875 L 25.75 -13.140625 L 58.234375 -13.140625 Z M 58.234375 0.34375 "/></g></g></g><g fill="#ebebeb" fill-opacity="1"><g transform="translate(894.916337, 210.519461)"><g><path d="M 58.75 0.34375 L 28 0.34375 C 14.40625 0.34375 7.609375 -4.609375 7.609375 -14.515625 L 7.609375 -109.5625 C 7.609375 -114.863281 9.191406 -118.664062 12.359375 -120.96875 C 15.523438 -123.269531 20.738281 -124.421875 28 -124.421875 L 58.75 -124.421875 L 58.75 -110.765625 L 25.75 -110.765625 L 25.75 -69.640625 L 54.4375 -69.640625 L 54.4375 -55.984375 L 25.75 -55.984375 L 25.75 -13.3125 L 58.75 -13.3125 Z M 58.75 0.34375 "/></g></g></g><g fill="#ebebeb" fill-opacity="1"><g transform="translate(956.089767, 210.519461)"><g><path d="M 71.71875 -124.421875 L 47 0.34375 C 34.101562 1.5 26.328125 -4.316406 23.671875 -17.109375 L 2.421875 -124.421875 L 20.734375 -124.421875 C 21.191406 -120.160156 24.015625 -104.207031 29.203125 -76.5625 C 34.160156 -50.175781 36.695312 -34.101562 36.8125 -28.34375 L 37.328125 -28.34375 C 37.441406 -34.101562 39.976562 -50.175781 44.9375 -76.5625 C 50.226562 -104.207031 53.050781 -120.160156 53.40625 -124.421875 Z M 71.71875 -124.421875 "/></g></g></g><g fill="#ebebeb" fill-opacity="1"><g transform="translate(1030.223665, 210.519461)"><g><path d="M 66.875 0.34375 L 49.421875 0.34375 L 49.421875 -40.265625 L 27.296875 -40.265625 L 27.296875 0.34375 L 9.84375 0.34375 L 9.84375 -93.140625 C 9.84375 -113.878906 19.347656 -124.304688 38.359375 -124.421875 C 46.078125 -124.535156 52.472656 -122.460938 57.546875 -118.203125 C 63.765625 -112.785156 66.875 -104.664062 66.875 -93.84375 Z M 49.421875 -101.609375 C 49.421875 -107.953125 45.734375 -111.125 38.359375 -111.125 C 30.984375 -111.125 27.296875 -107.953125 27.296875 -101.609375 L 27.296875 -52.703125 L 49.421875 -52.703125 Z M 49.421875 -101.609375 "/></g></g></g><g fill="#ebebeb" fill-opacity="1"><g transform="translate(1107.986471, 210.519461)"><g><path d="M 60.65625 -110.765625 L 40.09375 -110.765625 L 40.09375 0.34375 L 21.953125 0.34375 L 21.953125 -110.765625 L 1.5625 -110.765625 L 1.5625 -124.421875 L 60.65625 -124.421875 Z M 60.65625 -110.765625 "/></g></g></g><g fill="#ebebeb" fill-opacity="1"><g transform="translate(1170.196696, 210.519461)"><g><path d="M 58.75 0.34375 L 28 0.34375 C 14.40625 0.34375 7.609375 -4.609375 7.609375 -14.515625 L 7.609375 -109.5625 C 7.609375 -114.863281 9.191406 -118.664062 12.359375 -120.96875 C 15.523438 -123.269531 20.738281 -124.421875 28 -124.421875 L 58.75 -124.421875 L 58.75 -110.765625 L 25.75 -110.765625 L 25.75 -69.640625 L 54.4375 -69.640625 L 54.4375 -55.984375 L 25.75 -55.984375 L 25.75 -13.3125 L 58.75 -13.3125 Z M 58.75 0.34375 "/></g></g></g><g fill="#ebebeb" fill-opacity="1"><g transform="translate(1231.370126, 210.519461)"><g/></g></g><g fill="#ebebeb" fill-opacity="1"><g transform="translate(1266.104198, 210.519461)"><g><path d="M 66.359375 -27.125 C 66.359375 -8.8125 54.4375 0.34375 30.59375 0.34375 L 7.609375 0.34375 L 7.609375 -124.421875 L 31.28125 -124.421875 C 42.914062 -124.421875 51.554688 -122.234375 57.203125 -117.859375 C 63.304688 -113.128906 66.359375 -105.523438 66.359375 -95.046875 Z M 48.046875 -27.484375 L 48.046875 -98.328125 C 48.046875 -106.617188 42.570312 -110.765625 31.625 -110.765625 L 25.75 -110.765625 L 25.75 -13.3125 L 32.65625 -13.3125 C 42.914062 -13.3125 48.046875 -18.035156 48.046875 -27.484375 Z M 48.046875 -27.484375 "/></g></g></g><g fill="#ebebeb" fill-opacity="1"><g transform="translate(1339.546848, 210.519461)"><g><path d="M 64.984375 -77.59375 C 64.984375 -64.457031 58.585938 -56.566406 45.796875 -53.921875 L 45.796875 0.34375 L 30.59375 0.34375 L 30.59375 -53.921875 C 24.832031 -55.179688 20.109375 -57.65625 16.421875 -61.34375 C 12.148438 -65.726562 10.015625 -71.144531 10.015625 -77.59375 L 10.015625 -124.421875 L 26.09375 -124.421875 L 26.09375 -77.25 C 26.09375 -73.90625 27.414062 -71.253906 30.0625 -69.296875 C 32.488281 -67.796875 35.140625 -67.101562 38.015625 -67.21875 C 40.785156 -67.101562 43.289062 -67.820312 45.53125 -69.375 C 47.78125 -70.9375 48.90625 -73.445312 48.90625 -76.90625 L 48.90625 -124.421875 L 64.984375 -124.421875 Z M 64.984375 -77.59375 "/></g></g></g><g fill="#ebebeb" fill-opacity="1"><g transform="translate(1409.706188, 210.519461)"><g><path d="M 68.09375 -2.078125 C 65.207031 -0.234375 60.882812 0.6875 55.125 0.6875 C 47.632812 0.6875 43.023438 -3.226562 41.296875 -11.0625 C 37.265625 -29.726562 31.046875 -59.679688 22.640625 -100.921875 L 22.640625 0.34375 L 7.609375 0.34375 L 7.609375 -122.34375 C 10.253906 -124.1875 14.457031 -124.9375 20.21875 -124.59375 C 27.476562 -124.9375 31.859375 -121.484375 33.359375 -114.234375 C 36.921875 -96.953125 43.539062 -65.382812 53.21875 -19.53125 L 53.21875 -124.421875 L 68.09375 -124.421875 Z M 68.09375 -2.078125 "/></g></g></g><g fill="#ebebeb" fill-opacity="1"><g transform="translate(1485.395302, 210.519461)"><g><path d="M 66.875 0.34375 L 49.421875 0.34375 L 49.421875 -40.265625 L 27.296875 -40.265625 L 27.296875 0.34375 L 9.84375 0.34375 L 9.84375 -93.140625 C 9.84375 -113.878906 19.347656 -124.304688 38.359375 -124.421875 C 46.078125 -124.535156 52.472656 -122.460938 57.546875 -118.203125 C 63.765625 -112.785156 66.875 -104.664062 66.875 -93.84375 Z M 49.421875 -101.609375 C 49.421875 -107.953125 45.734375 -111.125 38.359375 -111.125 C 30.984375 -111.125 27.296875 -107.953125 27.296875 -101.609375 L 27.296875 -52.703125 L 49.421875 -52.703125 Z M 49.421875 -101.609375 "/></g></g></g><g fill="#ebebeb" fill-opacity="1"><g transform="translate(1563.158108, 210.519461)"><g><path d="M 91.765625 0.34375 L 75.171875 0.34375 L 75.171875 -103.171875 L 55.984375 -25.75 L 43.890625 -25.75 L 23.671875 -103.171875 L 23.671875 0.34375 L 7.4375 0.34375 L 7.4375 -122 C 10.195312 -123.726562 14.515625 -124.59375 20.390625 -124.59375 C 27.992188 -124.820312 32.773438 -121.367188 34.734375 -114.234375 C 35.890625 -109.847656 40.84375 -90.375 49.59375 -55.8125 C 52.820312 -69.0625 58.066406 -88.421875 65.328125 -113.890625 C 67.628906 -120.910156 72.351562 -124.421875 79.5 -124.421875 C 83.414062 -124.535156 87.503906 -123.90625 91.765625 -122.53125 Z M 91.765625 0.34375 "/></g></g></g><g fill="#ebebeb" fill-opacity="1"><g transform="translate(1662.694467, 210.519461)"><g><path d="M 25.40625 0.34375 L 7.265625 0.34375 L 7.265625 -124.421875 L 25.40625 -124.421875 Z M 25.40625 0.34375 "/></g></g></g><g fill="#ebebeb" fill-opacity="1"><g transform="translate(1695.354796, 210.519461)"><g><path d="M 62.390625 -21.421875 C 62.390625 -14.285156 59.453125 -8.582031 53.578125 -4.3125 C 48.390625 -0.519531 42.394531 1.375 35.59375 1.375 C 26.84375 1.375 19.929688 -0.582031 14.859375 -4.5 C 9.097656 -8.875 6.21875 -15.320312 6.21875 -23.84375 L 6.21875 -99.359375 C 6.21875 -107.890625 9.097656 -114.457031 14.859375 -119.0625 C 20.046875 -123.332031 27.015625 -125.46875 35.765625 -125.46875 C 43.253906 -125.46875 49.363281 -123.679688 54.09375 -120.109375 C 59.625 -115.960938 62.390625 -109.96875 62.390625 -102.125 L 62.390625 -91.25 L 45.28125 -91.25 L 45.28125 -103.515625 C 45.28125 -106.046875 44.15625 -108.117188 41.90625 -109.734375 C 39.65625 -111.347656 37.148438 -112.15625 34.390625 -112.15625 C 31.859375 -112.15625 29.550781 -111.347656 27.46875 -109.734375 C 25.394531 -108.117188 24.359375 -106.046875 24.359375 -103.515625 L 24.359375 -20.390625 C 24.359375 -17.972656 25.507812 -16.015625 27.8125 -14.515625 C 30.125 -13.015625 32.601562 -12.265625 35.25 -12.265625 C 37.789062 -12.265625 40.007812 -13.039062 41.90625 -14.59375 C 43.8125 -16.15625 44.765625 -18.144531 44.765625 -20.5625 L 44.9375 -33.875 L 62.390625 -33.875 Z M 62.390625 -21.421875 "/></g></g></g><g fill="#ebebeb" fill-opacity="1"><g transform="translate(1760.848434, 210.519461)"><g><path d="M 61.859375 -26.09375 C 61.859375 -7.78125 52.359375 1.375 33.359375 1.375 C 15.265625 1.375 6.21875 -6.972656 6.21875 -23.671875 L 6.21875 -34.046875 L 24.359375 -34.046875 L 24.359375 -13.65625 C 30.816406 -13.65625 33.988281 -13.65625 33.875 -13.65625 C 40.664062 -13.65625 44.0625 -17.742188 44.0625 -25.921875 L 44.0625 -34.390625 C 44.0625 -39.109375 43.71875 -42.332031 43.03125 -44.0625 C 41.644531 -47.0625 38.242188 -50.632812 32.828125 -54.78125 C 24.878906 -60.3125 18.023438 -65.84375 12.265625 -71.375 C 8.234375 -75.175781 6.21875 -79.4375 6.21875 -84.15625 L 6.21875 -102.65625 C 6.101562 -117.863281 15.722656 -125.46875 35.078125 -125.46875 C 52.929688 -125.46875 61.859375 -117.628906 61.859375 -101.953125 L 61.859375 -91.421875 L 44.0625 -91.421875 L 44.0625 -103.34375 C 44.0625 -106.570312 43.398438 -108.816406 42.078125 -110.078125 C 40.753906 -111.347656 38.363281 -112.039062 34.90625 -112.15625 C 29.03125 -112.039062 26.09375 -109.101562 26.09375 -103.34375 L 26.09375 -91.765625 C 26.09375 -87.148438 26.320312 -84.097656 26.78125 -82.609375 C 27.59375 -80.421875 29.609375 -78.113281 32.828125 -75.6875 C 37.671875 -72 44.066406 -67.160156 52.015625 -61.171875 C 58.816406 -56.109375 62.097656 -48.738281 61.859375 -39.0625 C 61.859375 -39.0625 61.859375 -34.738281 61.859375 -26.09375 Z M 61.859375 -26.09375 "/></g></g></g><g fill="#ebebeb" fill-opacity="1"><g transform="translate(439.661226, 355.603048)"><g><path d="M 23.625 -33.359375 C 23.625 -27.503906 21.414062 -23.769531 17 -22.15625 C 20.820312 -17.738281 22.710938 -10.648438 22.671875 -0.890625 L 22.609375 0.125 L 18.078125 0.125 L 18.078125 -0.890625 C 18.210938 -10.867188 16.328125 -17.703125 12.421875 -21.390625 L 8.65625 -21.453125 L 8.65625 0.125 L 3.953125 0.125 L 3.953125 -45.84375 L 9.484375 -45.84375 C 14.492188 -45.84375 18.039062 -45.035156 20.125 -43.421875 C 22.457031 -41.597656 23.625 -38.242188 23.625 -33.359375 Z M 18.96875 -33.421875 C 18.96875 -37.753906 18.078125 -40.554688 16.296875 -41.828125 C 15.109375 -42.679688 12.5625 -43.109375 8.65625 -43.109375 L 8.65625 -24.703125 L 9.609375 -24.703125 C 13.222656 -24.703125 15.582031 -25.128906 16.6875 -25.984375 C 18.207031 -27.128906 18.96875 -29.609375 18.96875 -33.421875 Z M 18.96875 -33.421875 "/></g></g></g><g fill="#ebebeb" fill-opacity="1"><g transform="translate(481.304695, 355.603048)"><g><path d="M 23.5625 -35.078125 L 23.5625 0.125 L 19.03125 0.125 L 19.03125 -15.46875 L 9.046875 -15.46875 L 9.046875 0.125 L 4.578125 0.125 L 4.578125 -34.828125 C 4.578125 -42.171875 7.742188 -45.84375 14.078125 -45.84375 C 17.171875 -45.84375 19.523438 -44.882812 21.140625 -42.96875 C 22.753906 -41.0625 23.5625 -38.429688 23.5625 -35.078125 Z M 19.03125 -38.078125 C 19.03125 -39.554688 18.550781 -40.695312 17.59375 -41.5 C 16.644531 -42.3125 15.472656 -42.71875 14.078125 -42.71875 C 12.628906 -42.71875 11.425781 -42.3125 10.46875 -41.5 C 9.519531 -40.695312 9.046875 -39.554688 9.046875 -38.078125 L 9.046875 -18.203125 L 19.03125 -18.203125 Z M 19.03125 -38.078125 "/></g></g></g><g fill="#ebebeb" fill-opacity="1"><g transform="translate(525.304014, 355.603048)"><g><path d="M 8.34375 0.125 L 3.5625 0.125 L 3.5625 -45.84375 L 8.34375 -45.84375 Z M 8.34375 0.125 "/></g></g></g><g fill="#ebebeb" fill-opacity="1"><g transform="translate(552.68501, 355.603048)"><g><path d="M 21.71875 -9.046875 C 21.71875 -2.671875 18.550781 0.515625 12.21875 0.515625 C 6.238281 0.515625 3.25 -2.140625 3.25 -7.453125 L 3.25 -11.078125 L 8.015625 -11.078125 L 8.015625 -3 C 10.566406 -3 11.800781 -3 11.71875 -3 C 15.320312 -3 17.125 -4.992188 17.125 -8.984375 L 17.125 -13.6875 C 17.125 -15.46875 17.082031 -16.507812 17 -16.8125 C 16.789062 -17.613281 16.132812 -18.441406 15.03125 -19.296875 C 12.820312 -21.035156 9.742188 -23.492188 5.796875 -26.671875 C 4.859375 -27.691406 4.265625 -28.4375 4.015625 -28.90625 C 3.503906 -29.84375 3.25 -31.117188 3.25 -32.734375 L 3.25 -38.515625 C 3.25 -41.023438 4.285156 -43 6.359375 -44.4375 C 8.148438 -45.675781 10.316406 -46.296875 12.859375 -46.296875 C 18.765625 -46.296875 21.71875 -43.851562 21.71875 -38.96875 C 21.71875 -38.664062 21.71875 -37.390625 21.71875 -35.140625 L 17.125 -35.140625 C 17 -35.140625 17 -36.035156 17.125 -37.828125 C 17.125 -39.773438 16.957031 -41.046875 16.625 -41.640625 C 16.070312 -42.617188 14.796875 -43.109375 12.796875 -43.109375 C 11.523438 -43.109375 10.503906 -42.703125 9.734375 -41.890625 C 8.972656 -41.085938 8.59375 -40.03125 8.59375 -38.71875 L 8.59375 -33.75 C 8.59375 -31.5 8.953125 -30.078125 9.671875 -29.484375 C 11.628906 -27.742188 14.859375 -25.023438 19.359375 -21.328125 C 20.460938 -20.523438 21.160156 -19.484375 21.453125 -18.203125 C 21.671875 -17.359375 21.757812 -15.851562 21.71875 -13.6875 C 21.71875 -13.6875 21.71875 -12.140625 21.71875 -9.046875 Z M 21.71875 -9.046875 "/></g></g></g><g fill="#ebebeb" fill-opacity="1"><g transform="translate(593.500742, 355.603048)"><g><path d="M 8.34375 0.125 L 3.5625 0.125 L 3.5625 -45.84375 L 8.34375 -45.84375 Z M 8.34375 0.125 "/></g></g></g><g fill="#ebebeb" fill-opacity="1"><g transform="translate(620.881738, 355.603048)"><g><path d="M 24 -45.84375 L 24 -0.578125 C 23.15625 0.015625 21.882812 0.289062 20.1875 0.25 C 17.9375 0.207031 16.578125 -1.019531 16.109375 -3.4375 C 13.859375 -13.375 10.929688 -26.488281 7.328125 -42.78125 L 7.328125 0.125 L 3.6875 0.125 L 3.6875 -45.265625 C 4.582031 -45.691406 5.796875 -45.863281 7.328125 -45.78125 C 9.617188 -45.476562 10.929688 -44.457031 11.265625 -42.71875 C 12.585938 -35.96875 15.644531 -22.703125 20.4375 -2.921875 L 20.4375 -45.84375 Z M 24 -45.84375 "/></g></g></g><g fill="#ebebeb" fill-opacity="1"><g transform="translate(664.117, 355.603048)"><g><path d="M 23.171875 -2.734375 C 20.921875 -0.566406 17.695312 0.515625 13.5 0.515625 C 10.3125 0.515625 7.847656 -0.675781 6.109375 -3.0625 C 4.492188 -5.21875 3.6875 -8.039062 3.6875 -11.53125 L 3.6875 -35.96875 C 3.6875 -39.238281 4.566406 -41.773438 6.328125 -43.578125 C 8.097656 -45.390625 10.53125 -46.296875 13.625 -46.296875 C 16.382812 -46.296875 18.613281 -45.53125 20.3125 -44 C 22.007812 -42.46875 22.859375 -40.617188 22.859375 -38.453125 C 22.898438 -37.859375 22.898438 -36.800781 22.859375 -35.28125 L 18.46875 -35.28125 L 18.46875 -38.515625 C 18.46875 -39.878906 17.957031 -40.984375 16.9375 -41.828125 C 15.914062 -42.679688 14.707031 -43.109375 13.3125 -43.109375 C 12.125 -43.109375 11.019531 -42.722656 10 -41.953125 C 8.976562 -41.191406 8.46875 -40.195312 8.46875 -38.96875 L 8.46875 -12.421875 C 8.46875 -6.046875 10.890625 -2.859375 15.734375 -2.859375 C 16.578125 -2.859375 17.488281 -2.945312 18.46875 -3.125 L 18.46875 -20.3125 L 14.578125 -20.3125 L 14.578125 -23.5625 L 23.171875 -23.5625 Z M 23.171875 -2.734375 "/></g></g></g><g fill="#ebebeb" fill-opacity="1"><g transform="translate(706.52451, 355.603048)"><g/></g></g><g fill="#ebebeb" fill-opacity="1"><g transform="translate(734.733243, 355.603048)"><g><path d="M 21.71875 -9.046875 C 21.71875 -2.671875 18.550781 0.515625 12.21875 0.515625 C 6.238281 0.515625 3.25 -2.140625 3.25 -7.453125 L 3.25 -11.078125 L 8.015625 -11.078125 L 8.015625 -3 C 10.566406 -3 11.800781 -3 11.71875 -3 C 15.320312 -3 17.125 -4.992188 17.125 -8.984375 L 17.125 -13.6875 C 17.125 -15.46875 17.082031 -16.507812 17 -16.8125 C 16.789062 -17.613281 16.132812 -18.441406 15.03125 -19.296875 C 12.820312 -21.035156 9.742188 -23.492188 5.796875 -26.671875 C 4.859375 -27.691406 4.265625 -28.4375 4.015625 -28.90625 C 3.503906 -29.84375 3.25 -31.117188 3.25 -32.734375 L 3.25 -38.515625 C 3.25 -41.023438 4.285156 -43 6.359375 -44.4375 C 8.148438 -45.675781 10.316406 -46.296875 12.859375 -46.296875 C 18.765625 -46.296875 21.71875 -43.851562 21.71875 -38.96875 C 21.71875 -38.664062 21.71875 -37.390625 21.71875 -35.140625 L 17.125 -35.140625 C 17 -35.140625 17 -36.035156 17.125 -37.828125 C 17.125 -39.773438 16.957031 -41.046875 16.625 -41.640625 C 16.070312 -42.617188 14.796875 -43.109375 12.796875 -43.109375 C 11.523438 -43.109375 10.503906 -42.703125 9.734375 -41.890625 C 8.972656 -41.085938 8.59375 -40.03125 8.59375 -38.71875 L 8.59375 -33.75 C 8.59375 -31.5 8.953125 -30.078125 9.671875 -29.484375 C 11.628906 -27.742188 14.859375 -25.023438 19.359375 -21.328125 C 20.460938 -20.523438 21.160156 -19.484375 21.453125 -18.203125 C 21.671875 -17.359375 21.757812 -15.851562 21.71875 -13.6875 C 21.71875 -13.6875 21.71875 -12.140625 21.71875 -9.046875 Z M 21.71875 -9.046875 "/></g></g></g><g fill="#ebebeb" fill-opacity="1"><g transform="translate(775.54896, 355.603048)"><g><path d="M 21.265625 -42.59375 L 13.75 -42.59375 L 13.75 0.125 L 9.046875 0.125 L 9.046875 -42.59375 L 1.53125 -42.59375 L 1.53125 -45.84375 L 21.265625 -45.84375 Z M 21.265625 -42.59375 "/></g></g></g><g fill="#ebebeb" fill-opacity="1"><g transform="translate(813.817845, 355.603048)"><g><path d="M 23.625 -33.359375 C 23.625 -27.503906 21.414062 -23.769531 17 -22.15625 C 20.820312 -17.738281 22.710938 -10.648438 22.671875 -0.890625 L 22.609375 0.125 L 18.078125 0.125 L 18.078125 -0.890625 C 18.210938 -10.867188 16.328125 -17.703125 12.421875 -21.390625 L 8.65625 -21.453125 L 8.65625 0.125 L 3.953125 0.125 L 3.953125 -45.84375 L 9.484375 -45.84375 C 14.492188 -45.84375 18.039062 -45.035156 20.125 -43.421875 C 22.457031 -41.597656 23.625 -38.242188 23.625 -33.359375 Z M 18.96875 -33.421875 C 18.96875 -37.753906 18.078125 -40.554688 16.296875 -41.828125 C 15.109375 -42.679688 12.5625 -43.109375 8.65625 -43.109375 L 8.65625 -24.703125 L 9.609375 -24.703125 C 13.222656 -24.703125 15.582031 -25.128906 16.6875 -25.984375 C 18.207031 -27.128906 18.96875 -29.609375 18.96875 -33.421875 Z M 18.96875 -33.421875 "/></g></g></g><g fill="#ebebeb" fill-opacity="1"><g transform="translate(855.461299, 355.603048)"><g><path d="M 23.5625 -35.078125 L 23.5625 0.125 L 19.03125 0.125 L 19.03125 -15.46875 L 9.046875 -15.46875 L 9.046875 0.125 L 4.578125 0.125 L 4.578125 -34.828125 C 4.578125 -42.171875 7.742188 -45.84375 14.078125 -45.84375 C 17.171875 -45.84375 19.523438 -44.882812 21.140625 -42.96875 C 22.753906 -41.0625 23.5625 -38.429688 23.5625 -35.078125 Z M 19.03125 -38.078125 C 19.03125 -39.554688 18.550781 -40.695312 17.59375 -41.5 C 16.644531 -42.3125 15.472656 -42.71875 14.078125 -42.71875 C 12.628906 -42.71875 11.425781 -42.3125 10.46875 -41.5 C 9.519531 -40.695312 9.046875 -39.554688 9.046875 -38.078125 L 9.046875 -18.203125 L 19.03125 -18.203125 Z M 19.03125 -38.078125 "/></g></g></g><g fill="#ebebeb" fill-opacity="1"><g transform="translate(899.460603, 355.603048)"><g><path d="M 21.265625 -42.59375 L 13.75 -42.59375 L 13.75 0.125 L 9.046875 0.125 L 9.046875 -42.59375 L 1.53125 -42.59375 L 1.53125 -45.84375 L 21.265625 -45.84375 Z M 21.265625 -42.59375 "/></g></g></g><g fill="#ebebeb" fill-opacity="1"><g transform="translate(937.729487, 355.603048)"><g><path d="M 20.5625 -42.59375 L 8.46875 -42.59375 L 8.46875 -24.828125 L 18.96875 -24.828125 L 18.96875 -21.515625 L 8.46875 -21.515625 L 8.46875 -3.125 L 20.5625 -3.125 L 20.5625 0.125 L 10.25 0.125 C 8 0.125 6.492188 -0.0195312 5.734375 -0.3125 C 4.367188 -0.863281 3.6875 -2.117188 3.6875 -4.078125 L 3.6875 -41.515625 C 3.6875 -43.546875 4.328125 -44.835938 5.609375 -45.390625 C 6.285156 -45.691406 7.832031 -45.84375 10.25 -45.84375 L 20.5625 -45.84375 Z M 20.5625 -42.59375 "/></g></g></g><g fill="#ebebeb" fill-opacity="1"><g transform="translate(975.616343, 355.603048)"><g><path d="M 23.171875 -2.734375 C 20.921875 -0.566406 17.695312 0.515625 13.5 0.515625 C 10.3125 0.515625 7.847656 -0.675781 6.109375 -3.0625 C 4.492188 -5.21875 3.6875 -8.039062 3.6875 -11.53125 L 3.6875 -35.96875 C 3.6875 -39.238281 4.566406 -41.773438 6.328125 -43.578125 C 8.097656 -45.390625 10.53125 -46.296875 13.625 -46.296875 C 16.382812 -46.296875 18.613281 -45.53125 20.3125 -44 C 22.007812 -42.46875 22.859375 -40.617188 22.859375 -38.453125 C 22.898438 -37.859375 22.898438 -36.800781 22.859375 -35.28125 L 18.46875 -35.28125 L 18.46875 -38.515625 C 18.46875 -39.878906 17.957031 -40.984375 16.9375 -41.828125 C 15.914062 -42.679688 14.707031 -43.109375 13.3125 -43.109375 C 12.125 -43.109375 11.019531 -42.722656 10 -41.953125 C 8.976562 -41.191406 8.46875 -40.195312 8.46875 -38.96875 L 8.46875 -12.421875 C 8.46875 -6.046875 10.890625 -2.859375 15.734375 -2.859375 C 16.578125 -2.859375 17.488281 -2.945312 18.46875 -3.125 L 18.46875 -20.3125 L 14.578125 -20.3125 L 14.578125 -23.5625 L 23.171875 -23.5625 Z M 23.171875 -2.734375 "/></g></g></g><g fill="#ebebeb" fill-opacity="1"><g transform="translate(1018.023853, 355.603048)"><g><path d="M 8.34375 0.125 L 3.5625 0.125 L 3.5625 -45.84375 L 8.34375 -45.84375 Z M 8.34375 0.125 "/></g></g></g><g fill="#ebebeb" fill-opacity="1"><g transform="translate(1045.404849, 355.603048)"><g><path d="M 21.84375 -8.90625 C 21.84375 -5.601562 20.90625 -3.144531 19.03125 -1.53125 C 17.46875 -0.164062 15.453125 0.515625 12.984375 0.515625 C 10.054688 0.515625 7.742188 -0.144531 6.046875 -1.46875 C 4.140625 -2.945312 3.1875 -5.175781 3.1875 -8.15625 L 3.1875 -37.1875 C 3.1875 -40.195312 4.140625 -42.488281 6.046875 -44.0625 C 7.785156 -45.550781 10.117188 -46.296875 13.046875 -46.296875 C 15.679688 -46.296875 17.765625 -45.613281 19.296875 -44.25 C 20.992188 -42.851562 21.84375 -40.816406 21.84375 -38.140625 L 21.84375 -35.078125 L 17.453125 -35.078125 L 17.453125 -38.71875 C 17.453125 -40.113281 16.992188 -41.191406 16.078125 -41.953125 C 15.160156 -42.722656 13.984375 -43.109375 12.546875 -43.109375 C 11.359375 -43.109375 10.296875 -42.703125 9.359375 -41.890625 C 8.421875 -41.085938 7.953125 -40.070312 7.953125 -38.84375 L 7.953125 -7.578125 C 7.953125 -6.171875 8.410156 -5.066406 9.328125 -4.265625 C 10.242188 -3.460938 11.421875 -3.0625 12.859375 -3.0625 C 15.867188 -3.0625 17.375 -4.882812 17.375 -8.53125 L 17.375 -11.015625 L 21.84375 -11.015625 Z M 21.84375 -8.90625 "/></g></g></g><g fill="#ebebeb" fill-opacity="1"><g transform="translate(1084.883497, 355.603048)"><g/></g></g><g fill="#ebebeb" fill-opacity="1"><g transform="translate(1113.09223, 355.603048)"><g><path d="M 22.921875 -33.359375 C 22.921875 -27.753906 21.753906 -24.191406 19.421875 -22.671875 C 17.804688 -21.609375 14.15625 -21.078125 8.46875 -21.078125 L 8.46875 0.125 L 3.6875 0.125 L 3.6875 -45.84375 L 9.484375 -45.84375 C 14.492188 -45.84375 17.910156 -45.097656 19.734375 -43.609375 C 21.859375 -41.828125 22.921875 -38.410156 22.921875 -33.359375 Z M 18.28125 -33.8125 C 18.28125 -38.226562 17.703125 -40.921875 16.546875 -41.890625 C 15.617188 -42.703125 12.925781 -43.109375 8.46875 -43.109375 L 8.46875 -24.328125 C 13.132812 -24.191406 15.9375 -24.582031 16.875 -25.5 C 17.8125 -26.414062 18.28125 -29.1875 18.28125 -33.8125 Z M 18.28125 -33.8125 "/></g></g></g><g fill="#ebebeb" fill-opacity="1"><g transform="translate(1154.162673, 355.603048)"><g><path d="M 20.5625 -42.59375 L 8.46875 -42.59375 L 8.46875 -24.828125 L 18.96875 -24.828125 L 18.96875 -21.515625 L 8.46875 -21.515625 L 8.46875 -3.125 L 20.5625 -3.125 L 20.5625 0.125 L 10.25 0.125 C 8 0.125 6.492188 -0.0195312 5.734375 -0.3125 C 4.367188 -0.863281 3.6875 -2.117188 3.6875 -4.078125 L 3.6875 -41.515625 C 3.6875 -43.546875 4.328125 -44.835938 5.609375 -45.390625 C 6.285156 -45.691406 7.832031 -45.84375 10.25 -45.84375 L 20.5625 -45.84375 Z M 20.5625 -42.59375 "/></g></g></g><g fill="#ebebeb" fill-opacity="1"><g transform="translate(1192.049529, 355.603048)"><g><path d="M 23.625 -33.359375 C 23.625 -27.503906 21.414062 -23.769531 17 -22.15625 C 20.820312 -17.738281 22.710938 -10.648438 22.671875 -0.890625 L 22.609375 0.125 L 18.078125 0.125 L 18.078125 -0.890625 C 18.210938 -10.867188 16.328125 -17.703125 12.421875 -21.390625 L 8.65625 -21.453125 L 8.65625 0.125 L 3.953125 0.125 L 3.953125 -45.84375 L 9.484375 -45.84375 C 14.492188 -45.84375 18.039062 -45.035156 20.125 -43.421875 C 22.457031 -41.597656 23.625 -38.242188 23.625 -33.359375 Z M 18.96875 -33.421875 C 18.96875 -37.753906 18.078125 -40.554688 16.296875 -41.828125 C 15.109375 -42.679688 12.5625 -43.109375 8.65625 -43.109375 L 8.65625 -24.703125 L 9.609375 -24.703125 C 13.222656 -24.703125 15.582031 -25.128906 16.6875 -25.984375 C 18.207031 -27.128906 18.96875 -29.609375 18.96875 -33.421875 Z M 18.96875 -33.421875 "/></g></g></g><g fill="#ebebeb" fill-opacity="1"><g transform="translate(1233.692983, 355.603048)"><g><path d="M 20.4375 -42.59375 L 8.34375 -42.59375 L 8.34375 -24.828125 L 18.84375 -24.828125 L 18.84375 -21.515625 L 8.34375 -21.515625 L 8.34375 0.125 C 5.195312 0 3.625 -1.164062 3.625 -3.375 L 3.625 -41.0625 C 3.625 -43.101562 4.238281 -44.460938 5.46875 -45.140625 C 6.363281 -45.609375 7.914062 -45.84375 10.125 -45.84375 L 20.4375 -45.84375 Z M 20.4375 -42.59375 "/></g></g></g><g fill="#ebebeb" fill-opacity="1"><g transform="translate(1270.943085, 355.603048)"><g><path d="M 23.296875 -8.53125 C 23.296875 -5.519531 22.34375 -3.226562 20.4375 -1.65625 C 18.695312 -0.207031 16.363281 0.515625 13.4375 0.515625 C 10.507812 0.515625 8.195312 -0.144531 6.5 -1.46875 C 4.539062 -2.945312 3.5625 -5.175781 3.5625 -8.15625 L 3.5625 -37.1875 C 3.5625 -40.195312 4.519531 -42.488281 6.4375 -44.0625 C 8.175781 -45.550781 10.507812 -46.296875 13.4375 -46.296875 C 16.28125 -46.296875 18.613281 -45.507812 20.4375 -43.9375 C 22.34375 -42.238281 23.296875 -39.878906 23.296875 -36.859375 Z M 18.59375 -6.9375 L 18.59375 -38.515625 C 18.59375 -39.878906 18.070312 -40.960938 17.03125 -41.765625 C 15.988281 -42.578125 14.789062 -42.984375 13.4375 -42.984375 C 12.113281 -42.984375 10.929688 -42.578125 9.890625 -41.765625 C 8.859375 -40.960938 8.34375 -39.878906 8.34375 -38.515625 L 8.34375 -6.9375 C 8.34375 -5.664062 8.914062 -4.625 10.0625 -3.8125 C 11.082031 -3.09375 12.207031 -2.734375 13.4375 -2.734375 C 14.707031 -2.734375 15.882812 -3.113281 16.96875 -3.875 C 18.050781 -4.644531 18.59375 -5.664062 18.59375 -6.9375 Z M 18.59375 -6.9375 "/></g></g></g><g fill="#ebebeb" fill-opacity="1"><g transform="translate(1313.350595, 355.603048)"><g><path d="M 23.625 -33.359375 C 23.625 -27.503906 21.414062 -23.769531 17 -22.15625 C 20.820312 -17.738281 22.710938 -10.648438 22.671875 -0.890625 L 22.609375 0.125 L 18.078125 0.125 L 18.078125 -0.890625 C 18.210938 -10.867188 16.328125 -17.703125 12.421875 -21.390625 L 8.65625 -21.453125 L 8.65625 0.125 L 3.953125 0.125 L 3.953125 -45.84375 L 9.484375 -45.84375 C 14.492188 -45.84375 18.039062 -45.035156 20.125 -43.421875 C 22.457031 -41.597656 23.625 -38.242188 23.625 -33.359375 Z M 18.96875 -33.421875 C 18.96875 -37.753906 18.078125 -40.554688 16.296875 -41.828125 C 15.109375 -42.679688 12.5625 -43.109375 8.65625 -43.109375 L 8.65625 -24.703125 L 9.609375 -24.703125 C 13.222656 -24.703125 15.582031 -25.128906 16.6875 -25.984375 C 18.207031 -27.128906 18.96875 -29.609375 18.96875 -33.421875 Z M 18.96875 -33.421875 "/></g></g></g><g fill="#ebebeb" fill-opacity="1"><g transform="translate(1354.994049, 355.603048)"><g><path d="M 32.65625 -45.65625 L 32.65625 0.125 L 28.53125 0.125 L 28.53125 -41.453125 L 19.734375 -9.9375 L 16.8125 -9.9375 L 7.703125 -41.328125 L 7.703125 0.125 L 3.6875 0.125 L 3.6875 -45.46875 C 4.875 -45.800781 6.128906 -45.925781 7.453125 -45.84375 C 8.335938 -45.800781 9.179688 -45.492188 9.984375 -44.921875 C 10.796875 -44.347656 11.3125 -43.613281 11.53125 -42.71875 C 11.945312 -41.019531 14.21875 -32.210938 18.34375 -16.296875 C 19.78125 -22.710938 21.941406 -31.4375 24.828125 -42.46875 C 25.554688 -44.71875 26.976562 -45.84375 29.09375 -45.84375 C 30.5 -45.882812 31.6875 -45.820312 32.65625 -45.65625 Z M 32.65625 -45.65625 "/></g></g></g><g fill="#ebebeb" fill-opacity="1"><g transform="translate(1406.888698, 355.603048)"><g><path d="M 23.5625 -35.078125 L 23.5625 0.125 L 19.03125 0.125 L 19.03125 -15.46875 L 9.046875 -15.46875 L 9.046875 0.125 L 4.578125 0.125 L 4.578125 -34.828125 C 4.578125 -42.171875 7.742188 -45.84375 14.078125 -45.84375 C 17.171875 -45.84375 19.523438 -44.882812 21.140625 -42.96875 C 22.753906 -41.0625 23.5625 -38.429688 23.5625 -35.078125 Z M 19.03125 -38.078125 C 19.03125 -39.554688 18.550781 -40.695312 17.59375 -41.5 C 16.644531 -42.3125 15.472656 -42.71875 14.078125 -42.71875 C 12.628906 -42.71875 11.425781 -42.3125 10.46875 -41.5 C 9.519531 -40.695312 9.046875 -39.554688 9.046875 -38.078125 L 9.046875 -18.203125 L 19.03125 -18.203125 Z M 19.03125 -38.078125 "/></g></g></g><g fill="#ebebeb" fill-opacity="1"><g transform="translate(1450.888062, 355.603048)"><g><path d="M 24 -45.84375 L 24 -0.578125 C 23.15625 0.015625 21.882812 0.289062 20.1875 0.25 C 17.9375 0.207031 16.578125 -1.019531 16.109375 -3.4375 C 13.859375 -13.375 10.929688 -26.488281 7.328125 -42.78125 L 7.328125 0.125 L 3.6875 0.125 L 3.6875 -45.265625 C 4.582031 -45.691406 5.796875 -45.863281 7.328125 -45.78125 C 9.617188 -45.476562 10.929688 -44.457031 11.265625 -42.71875 C 12.585938 -35.96875 15.644531 -22.703125 20.4375 -2.921875 L 20.4375 -45.84375 Z M 24 -45.84375 "/></g></g></g><g fill="#ebebeb" fill-opacity="1"><g transform="translate(1494.12337, 355.603048)"><g><path d="M 21.84375 -8.90625 C 21.84375 -5.601562 20.90625 -3.144531 19.03125 -1.53125 C 17.46875 -0.164062 15.453125 0.515625 12.984375 0.515625 C 10.054688 0.515625 7.742188 -0.144531 6.046875 -1.46875 C 4.140625 -2.945312 3.1875 -5.175781 3.1875 -8.15625 L 3.1875 -37.1875 C 3.1875 -40.195312 4.140625 -42.488281 6.046875 -44.0625 C 7.785156 -45.550781 10.117188 -46.296875 13.046875 -46.296875 C 15.679688 -46.296875 17.765625 -45.613281 19.296875 -44.25 C 20.992188 -42.851562 21.84375 -40.816406 21.84375 -38.140625 L 21.84375 -35.078125 L 17.453125 -35.078125 L 17.453125 -38.71875 C 17.453125 -40.113281 16.992188 -41.191406 16.078125 -41.953125 C 15.160156 -42.722656 13.984375 -43.109375 12.546875 -43.109375 C 11.359375 -43.109375 10.296875 -42.703125 9.359375 -41.890625 C 8.421875 -41.085938 7.953125 -40.070312 7.953125 -38.84375 L 7.953125 -7.578125 C 7.953125 -6.171875 8.410156 -5.066406 9.328125 -4.265625 C 10.242188 -3.460938 11.421875 -3.0625 12.859375 -3.0625 C 15.867188 -3.0625 17.375 -4.882812 17.375 -8.53125 L 17.375 -11.015625 L 21.84375 -11.015625 Z M 21.84375 -8.90625 "/></g></g></g><g fill="#ebebeb" fill-opacity="1"><g transform="translate(1533.601959, 355.603048)"><g><path d="M 20.5625 -42.59375 L 8.46875 -42.59375 L 8.46875 -24.828125 L 18.96875 -24.828125 L 18.96875 -21.515625 L 8.46875 -21.515625 L 8.46875 -3.125 L 20.5625 -3.125 L 20.5625 0.125 L 10.25 0.125 C 8 0.125 6.492188 -0.0195312 5.734375 -0.3125 C 4.367188 -0.863281 3.6875 -2.117188 3.6875 -4.078125 L 3.6875 -41.515625 C 3.6875 -43.546875 4.328125 -44.835938 5.609375 -45.390625 C 6.285156 -45.691406 7.832031 -45.84375 10.25 -45.84375 L 20.5625 -45.84375 Z M 20.5625 -42.59375 "/></g></g></g></svg>